<?xml version="1.0" encoding="UTF-8"?>
<svg version="1.1" xmlns="http://www.w3.org/2000/svg" width="513" height="477">
<path d="M0 0 C0.22379488 11.55030268 -0.08974426 22.5896331 -2 34 C-5.8063457 33.32829194 -9.35206816 32.27253436 -13 31 C-17.2374701 39.28567354 -21.31414854 47.53408597 -24.8046875 56.16796875 C-26.41632113 59.98638177 -28.28340512 63.65048264 -30.17041016 67.33886719 C-32.43228347 71.81966686 -34.56187796 76.36302875 -36.703125 80.90234375 C-37.11771973 81.7795105 -37.53231445 82.65667725 -37.95947266 83.5604248 C-38.97373399 85.70659594 -39.98722388 87.8531277 -41 90 C-41.65208939 89.97477768 -42.30417877 89.94955536 -42.97602844 89.92356873 C-49.80670003 89.6764103 -56.6321977 89.55079968 -63.46704102 89.4934082 C-66.0116183 89.45641321 -68.55595211 89.38915377 -71.09887695 89.2902832 C-84.78957217 88.21248921 -84.78957217 88.21248921 -97.21792603 92.65429688 C-100.80380039 96.62403893 -103.09023613 101.06347219 -105.12733459 105.97738647 C-106.31381255 108.72733661 -107.89314408 111.14577582 -109.5625 113.625 C-110.10519531 114.4809375 -110.64789063 115.336875 -111.20703125 116.21875 C-113.35174635 119.54562833 -115.54762132 122.83612587 -117.75 126.125 C-121.4977992 131.72462738 -125.20615289 137.34829317 -128.875 143 C-129.32713867 143.69367676 -129.77927734 144.38735352 -130.24511719 145.10205078 C-132.97956031 149.32606191 -135.54167132 153.60931064 -138 158 C-138.66 158 -139.32 158 -140 158 C-140.2475 158.680625 -140.495 159.36125 -140.75 160.0625 C-142.24197908 163.56865083 -144.06835511 166.71620368 -146 170 C-147.9375 169.6875 -147.9375 169.6875 -150 169 C-150.33 168.01 -150.66 167.02 -151 166 C-152.31135736 165.29108245 -153.64870762 164.62946893 -155 164 C-156.28341882 162.97811821 -157.53234125 161.91191503 -158.75 160.8125 C-159.45125 160.18472656 -160.1525 159.55695313 -160.875 158.91015625 C-161.57625 158.27980469 -162.2775 157.64945313 -163 157 C-164.24871158 155.91518181 -165.49871069 154.83184388 -166.75 153.75 C-172.25866095 148.93543033 -177.62069536 143.95792578 -183 139 C-189.77706663 141.0573238 -196.14797393 143.74465998 -202.58984375 146.66235352 C-207.79713123 149 -207.79713123 149 -210 149 C-209.94199219 149.67804688 -209.88398438 150.35609375 -209.82421875 151.0546875 C-209.41224312 159.55315623 -211.16710683 165.75754365 -216.9375 172.14453125 C-220.61519446 175.56450849 -223.02944861 177.1192011 -228 178 C-227.96970703 178.98581055 -227.93941406 179.97162109 -227.90820312 180.98730469 C-227.6429147 189.70406759 -227.39816665 198.42107927 -227.18075562 207.13917542 C-227.06689269 211.65011281 -226.92506345 216.1586258 -226.7578125 220.66796875 C-226.71202916 222.42444039 -226.6675914 224.18094806 -226.625 225.9375 C-226.58697266 226.70868164 -226.54894531 227.47986328 -226.50976562 228.27441406 C-226.44793399 232.23709469 -226.87429517 233.83995527 -229.359375 237.00390625 C-232 239 -232 239 -234.625 239 C-237.19975423 237.91589296 -238.29803873 237.19636746 -240 235 C-242.30740012 223.36681167 -241.11436653 210.43882563 -241.0625 198.625 C-241.05747236 196.61718862 -241.0529117 194.60937602 -241.04882812 192.6015625 C-241.03792865 187.73434414 -241.02073451 182.86718599 -241 178 C-242.41599487 177.54185913 -242.41599487 177.54185913 -243.8605957 177.07446289 C-246.68978571 176.10617102 -248.75625945 175.14082422 -251.1875 173.4375 C-251.84105469 173.00308594 -252.49460937 172.56867188 -253.16796875 172.12109375 C-255.96437225 168.88346666 -256.85035388 165.06810261 -258 161 C-259.03592285 161.03029297 -260.0718457 161.06058594 -261.13916016 161.09179688 C-271.17421113 161.38239535 -281.20966696 161.64585884 -291.24609375 161.88427734 C-294.1292283 161.95300189 -297.01173345 162.02904801 -299.89453125 162.11181641 C-302.97137322 162.19831932 -306.0474157 162.26060327 -309.125 162.3125 C-309.99205566 162.34214844 -310.85911133 162.37179688 -311.75244141 162.40234375 C-315.38171087 162.4380781 -317.54361657 162.31981678 -320.55859375 160.20703125 C-322 158 -322 158 -321.9375 154.375 C-321 151 -321 151 -318 149 C-315.39936829 148.68356323 -315.39936829 148.68356323 -312.2434082 148.58935547 C-311.06241043 148.54946503 -309.88141266 148.50957458 -308.66462708 148.46847534 C-307.38955795 148.43505035 -306.11448883 148.40162537 -304.80078125 148.3671875 C-303.49545944 148.32562531 -302.19013763 148.28406311 -300.84526062 148.24124146 C-297.37833683 148.13095965 -293.91117808 148.03207212 -290.44384766 147.93554688 C-286.90441019 147.83499928 -283.36531307 147.72368877 -279.82617188 147.61328125 C-272.88440981 147.3983141 -265.94234016 147.19538143 -259 147 C-258.73322952 146.44810501 -258.46645905 145.89621002 -258.19160461 145.32759094 C-257.8374498 144.60500595 -257.48329498 143.88242096 -257.1184082 143.13793945 C-256.59450249 142.06259697 -256.59450249 142.06259697 -256.06001282 140.9655304 C-253.34457526 135.93042614 -248.47250218 132.84532533 -243.625 130.0625 C-236.96223892 128.10962175 -230.40555602 128.1393252 -223.9609375 130.875 C-220.21658007 133.02315725 -216.89650645 135.80305804 -214 139 C-214 139.66 -214 140.32 -214 141 C-212.20441864 140.051675 -210.4089168 139.1031992 -208.61376953 138.15405273 C-207.07213865 137.33907855 -205.53014269 136.5247946 -203.98779297 135.71118164 C-200.33730199 133.78206964 -196.69494108 131.84250043 -193.08203125 129.84375 C-191.94121094 129.2146875 -190.80039062 128.585625 -189.625 127.9375 C-188.60664063 127.36902344 -187.58828125 126.80054688 -186.5390625 126.21484375 C-184 125 -184 125 -181 125 C-179.625 126.1875 -179.625 126.1875 -178 128 C-175.32815764 130.82027805 -172.68865476 133.2956691 -169.5 135.5 C-166.3046737 137.71267756 -163.72074949 140.21289076 -161 143 C-158.36181369 145.366463 -155.68560401 147.68758166 -153 150 C-152.34 149.01 -151.68 148.02 -151 147 C-150.47664062 146.27425781 -149.95328125 145.54851562 -149.4140625 144.80078125 C-145.74476647 139.69741537 -142.64091415 134.70437456 -140 129 C-139.34 129 -138.68 129 -138 129 C-137.814375 128.21625 -137.62875 127.4325 -137.4375 126.625 C-135.76614977 122.41029071 -133.43943322 119.22625311 -130.79296875 115.5703125 C-128.72375728 112.60399192 -127.02335495 109.5383929 -125.31640625 106.35546875 C-123.24818624 102.65476647 -120.92076712 99.12489725 -118.625 95.5625 C-117.33245889 93.52426209 -116.10886326 91.48345387 -114.9375 89.375 C-114.298125 88.26125 -113.65875 87.1475 -113 86 C-112.65425934 85.25142731 -112.30851868 84.50285461 -111.95230103 83.7315979 C-110.52901106 81.04599693 -109.21962008 79.08913528 -107 77 C-102.68915654 75.75779068 -98.54083526 75.97614452 -94.0859375 76.1484375 C-92.83873932 76.1555777 -91.59154114 76.1627179 -90.30654907 76.17007446 C-86.32788589 76.19581958 -82.35239754 76.27960582 -78.375 76.375 C-74.39038945 76.46270438 -70.40760544 76.53063975 -66.42202759 76.5585022 C-63.94414943 76.57651723 -61.46624827 76.62754117 -58.98983765 76.71469116 C-53.23896311 77.01581442 -53.23896311 77.01581442 -48.3809967 74.51812744 C-47.08963218 72.44698054 -47.08963218 72.44698054 -46 69 C-45.52949219 67.906875 -45.05898438 66.81375 -44.57421875 65.6875 C-44.33493652 65.10871094 -44.0956543 64.52992188 -43.84912109 63.93359375 C-42.0557704 59.84982793 -39.89830484 55.93985359 -37.8125 52 C-37.32998779 51.0824292 -36.84747559 50.1648584 -36.3503418 49.21948242 C-34.08759719 44.92277642 -31.80923834 40.63518535 -29.5 36.36328125 C-29.12770264 35.67298828 -28.75540527 34.98269531 -28.37182617 34.27148438 C-27.68063988 32.99329151 -26.98565916 31.7171411 -26.28637695 30.44335938 C-24.54009265 27.39756123 -24.54009265 27.39756123 -24 24 C-25.79526111 22.71050833 -25.79526111 22.71050833 -28 21.5 C-30.25 20.21875 -30.25 20.21875 -32 19 C-32 18.34 -32 17.68 -32 17 C-24.9810908 11.63910085 -16.92124532 7.81760017 -9 4 C-7.43625417 3.21079703 -5.87357388 2.4194751 -4.3125 1.625 C-1 0 -1 0 0 0 Z M-243.625 145.1875 C-244.07875 146.115625 -244.5325 147.04375 -245 148 C-245.433125 148.804375 -245.86625 149.60875 -246.3125 150.4375 C-247.21020688 153.78349836 -247.01642797 155.67966864 -246 159 C-244.09604776 161.86258553 -242.12818922 164.43590539 -239 166 C-234.460781 166.54399285 -231.0455731 166.62289461 -227.0625 164.25 C-224.03293764 160.94502288 -223.13357845 159.17994301 -222.625 154.6875 C-223.0969152 150.0470005 -224.39156897 147.83592798 -227 144 C-231.97787499 141.5110625 -239.40088488 141.66740406 -243.625 145.1875 Z " fill="#47FED4" transform="translate(513,80)"/>
<path d="M0 0 C3.4375 0.75 3.4375 0.75 5.4375 1.75 C5.89386453 10.1842927 4.61173358 17.60956596 2.4375 25.75 C3.10136719 25.90855469 3.76523437 26.06710938 4.44921875 26.23046875 C5.33222656 26.46378906 6.21523438 26.69710937 7.125 26.9375 C7.99511719 27.15792969 8.86523438 27.37835938 9.76171875 27.60546875 C13.31370203 29.12478423 15.08869834 30.66926543 17.4375 33.75 C17.99481266 36.7243869 18.22933125 39.14140554 18.25 42.125 C18.27223633 42.96482422 18.29447266 43.80464844 18.31738281 44.66992188 C18.38485835 47.69668154 18.40955906 50.72262126 18.4375 53.75 C18.47507196 55.7390746 18.5127015 57.72814849 18.55180359 59.7171936 C18.60263688 62.52760399 18.63624179 65.33802344 18.66464233 68.14874268 C18.67983706 69.54556155 18.69904006 70.94234278 18.72232056 72.33905029 C18.75214136 74.31961164 18.7592899 76.3004743 18.765625 78.28125 C18.7749707 79.43173828 18.78431641 80.58222656 18.79394531 81.76757812 C18.40133368 85.05260803 17.75633028 86.42768223 15.4375 88.75 C10.79641435 89.71919106 8.0659847 87.52898474 4.25 85.0625 C-13.37900232 74.45589748 -33.58314296 73.24635609 -53.3671875 77.83984375 C-57.71050254 79.07699828 -61.60032331 80.59150076 -65.5625 82.75 C-66.72265625 83.34554687 -66.72265625 83.34554687 -67.90625 83.953125 C-79.64351385 90.41604877 -87.87948464 99.19190718 -94.625 110.5859375 C-99.19065884 118.04195295 -99.19065884 118.04195295 -102.5 119.75 C-105.62540477 119.75 -107.16294242 118.69558723 -109.5625 116.75 C-110.48678266 113.93942621 -110.73526099 112.30321279 -109.84765625 109.4609375 C-105.29027842 100.75387059 -99.89269218 92.38207864 -92.5625 85.75 C-91.84449219 85.06292969 -91.12648438 84.37585938 -90.38671875 83.66796875 C-84.83541087 78.46199884 -79.30173217 74.28147537 -72.5625 70.75 C-71.06396484 69.96109375 -71.06396484 69.96109375 -69.53515625 69.15625 C-49.28527929 59.1417654 -27.82851436 59.48081964 -6.37109375 64.7734375 C-2.62468902 66.0760817 0.88983256 67.97616628 4.4375 69.75 C4.4375 59.85 4.4375 49.95 4.4375 39.75 C-2.3469172 37.41513462 -2.3469172 37.41513462 -9.17578125 35.6171875 C-9.94277344 35.4512207 -10.70976562 35.28525391 -11.5 35.11425781 C-12.675625 34.8720752 -12.675625 34.8720752 -13.875 34.625 C-14.70386719 34.45323242 -15.53273438 34.28146484 -16.38671875 34.10449219 C-22.7590926 32.82654338 -29.05572104 31.91770049 -35.5625 31.75 C-36.34584717 31.72663574 -37.12919434 31.70327148 -37.9362793 31.67919922 C-44.89391313 31.56105189 -51.51841489 32.2230937 -58.375 33.375 C-59.42163818 33.5495874 -60.46827637 33.7241748 -61.54663086 33.90405273 C-69.91846814 35.41213604 -76.95692585 37.91138586 -84.5625 41.75 C-85.72007812 42.22953125 -86.87765625 42.7090625 -88.0703125 43.203125 C-91.43566537 44.69381822 -94.31834097 46.3983023 -97.375 48.4375 C-102.34717909 51.75 -102.34717909 51.75 -104.5625 51.75 C-104.5625 52.41 -104.5625 53.07 -104.5625 53.75 C-106.1015625 55.08203125 -106.1015625 55.08203125 -108.1875 56.5625 C-108.92355469 57.10132813 -109.65960938 57.64015625 -110.41796875 58.1953125 C-111.12566406 58.70835937 -111.83335937 59.22140625 -112.5625 59.75 C-121.96963176 66.75531089 -128.71486445 76.70373675 -134.5625 86.75 C-135.25267212 87.89758789 -135.25267212 87.89758789 -135.95678711 89.06835938 C-140.08293608 96.20225207 -142.53358017 103.33742616 -144.75 111.25 C-145.40135252 113.55458973 -146.0611321 115.85681912 -146.73046875 118.15625 C-147.01172607 119.15978516 -147.2929834 120.16332031 -147.58276367 121.19726562 C-148.5776005 123.78934484 -149.41949438 125.03019149 -151.5625 126.75 C-155.41836611 128.43694142 -159.51903687 127.47589591 -163.5625 126.9375 C-164.2740625 126.85435547 -164.985625 126.77121094 -165.71875 126.68554688 C-172.78217332 125.78285192 -172.78217332 125.78285192 -175.5625 123.75 C-176.81092404 118.93465013 -176.83199896 117.28899793 -174.5625 112.75 C-169.6125 112.75 -164.6625 112.75 -159.5625 112.75 C-158.5725 109.12 -157.5825 105.49 -156.5625 101.75 C-157.944375 101.481875 -159.32625 101.21375 -160.75 100.9375 C-164.50396702 100.08620669 -167.56252182 99.28123159 -170.5625 96.75 C-171.88000691 93.62092109 -171.69490037 92.17557262 -170.6875 88.9375 C-168.2089443 86.3860456 -167.60967657 86.39235079 -164.1875 86.3125 C-160.58619851 86.49927739 -157.87959736 87.32838685 -154.5625 88.75 C-152.49485598 88.65898657 -152.49485598 88.65898657 -150.5625 87.75 C-149.43179556 85.90272433 -149.43179556 85.90272433 -148.8125 83.6875 C-148.57015625 82.95402344 -148.3278125 82.22054687 -148.078125 81.46484375 C-147.90796875 80.89894531 -147.7378125 80.33304687 -147.5625 79.75 C-148.20058594 79.32589844 -148.83867187 78.90179688 -149.49609375 78.46484375 C-156.22963841 73.68518256 -156.22963841 73.68518256 -157.875 69.0625 C-157.5625 65.75 -157.5625 65.75 -155.9375 63.3125 C-153.09803142 61.44442856 -151.9032232 61.38546668 -148.5625 61.75 C-146.39453125 63.0625 -146.39453125 63.0625 -144.375 64.75 C-141.79796563 67.12698073 -141.79796563 67.12698073 -138.5625 67.75 C-137.5725 66.265 -137.5725 66.265 -136.5625 64.75 C-135.9025 64.75 -135.2425 64.75 -134.5625 64.75 C-133.9025 62.77 -133.2425 60.79 -132.5625 58.75 C-133.67625 57.698125 -133.67625 57.698125 -134.8125 56.625 C-137.54866473 53.76446415 -139.73207892 51.26440846 -141.5625 47.75 C-140.85208722 44.3558056 -139.48436516 41.69791011 -136.5625 39.75 C-131.36887719 40.20724586 -129.09966394 42.73817727 -125.52734375 46.25390625 C-123.44369062 48.15386994 -123.44369062 48.15386994 -119.5625 47.75 C-117.81581835 46.6948979 -117.81581835 46.6948979 -116.3125 45.25 C-115.405 44.425 -114.4975 43.6 -113.5625 42.75 C-114.00722656 42.03714844 -114.45195312 41.32429688 -114.91015625 40.58984375 C-120.11578822 31.77940058 -120.11578822 31.77940058 -119.8125 27.75 C-118.5625 24.75 -118.5625 24.75 -115.5 22.8125 C-114.530625 22.461875 -113.56125 22.11125 -112.5625 21.75 C-107.96743818 25.30015735 -104.79795746 28.22710509 -102.5625 33.75 C-98.04771602 33.21884894 -95.21583143 31.38379708 -91.5625 28.75 C-91.7790625 28.01394531 -91.995625 27.27789062 -92.21875 26.51953125 C-92.4971875 25.54371094 -92.775625 24.56789063 -93.0625 23.5625 C-93.3409375 22.59957031 -93.619375 21.63664062 -93.90625 20.64453125 C-94.5396448 17.85080774 -94.84479377 15.59727332 -94.5625 12.75 C-91.89735562 9.77130923 -90.45178175 8.80335691 -86.4375 8.5625 C-83.5625 9.75 -83.5625 9.75 -81.8125 12.875 C-81.36426386 14.15605357 -80.94850215 15.44884043 -80.5625 16.75 C-80.35753906 17.41644531 -80.15257812 18.08289063 -79.94140625 18.76953125 C-79.45352249 20.42160659 -79.00423685 22.08499188 -78.5625 23.75 C-77.73105469 23.5334375 -76.89960938 23.316875 -76.04296875 23.09375 C-74.95628906 22.8153125 -73.86960937 22.536875 -72.75 22.25 C-71.13158203 21.83234375 -71.13158203 21.83234375 -69.48046875 21.40625 C-66.5625 20.75 -66.5625 20.75 -63.5625 20.75 C-63.8925 19.96625 -64.2225 19.1825 -64.5625 18.375 C-65.83660171 13.75638131 -65.73173936 9.50750644 -65.5625 4.75 C-59.25480769 1.59615385 -59.25480769 1.59615385 -56.3125 2.25 C-52.347514 5.64855943 -51.42085553 8.86687833 -50.98046875 13.9375 C-50.89949951 14.83855469 -50.81853027 15.73960938 -50.73510742 16.66796875 C-50.67814697 17.35503906 -50.62118652 18.04210937 -50.5625 18.75 C-49.78237549 18.73952637 -49.00225098 18.72905273 -48.19848633 18.71826172 C-44.59069165 18.67614012 -40.982949 18.65049787 -37.375 18.625 C-36.14845703 18.60824219 -34.92191406 18.59148437 -33.65820312 18.57421875 C-25.43550352 18.5308272 -17.64602488 19.24288774 -9.5625 20.75 C-9.624375 19.821875 -9.68625 18.89375 -9.75 17.9375 C-9.75 12.29090545 -8.61363153 5.48484204 -5.1796875 0.90625 C-3.5625 -0.25 -3.5625 -0.25 0 0 Z " fill="#46FED5" transform="translate(307.5625,92.25)"/>
<path d="M0 0 C2 1 2 1 2.80615234 2.95849609 C3.06348145 3.80492676 3.32081055 4.65135742 3.5859375 5.5234375 C4.0188208 6.92323853 4.0188208 6.92323853 4.46044922 8.35131836 C4.76225098 9.3491333 5.06405273 10.34694824 5.375 11.375 C6.0093332 13.40528675 6.64473625 15.43523957 7.28125 17.46484375 C8.20533484 20.43405866 9.12349914 23.40464681 10.03125 26.37890625 C13.58197295 37.14614483 20.67459019 49.67459019 28.6875 57.6875 C31 60 31 60 32 63 C33.31217234 63.70740792 34.64901668 64.36986803 36 65 C37.17645696 65.98538507 38.32050675 67.01018788 39.4375 68.0625 C56.51401277 83.24512965 76.76545454 92.10524511 99.38012695 94.74902344 C104.4096187 95.45504559 106.87869598 97.01200379 110 101 C109.91498029 104.57082798 109.00413395 105.99379907 107 109 C104.16342459 109.1690267 101.62786306 109.14412418 98.8125 108.9375 C98.01110596 108.88585693 97.20971191 108.83421387 96.3840332 108.78100586 C86.85971217 108.02881326 77.82167002 105.69086757 69 102 C69.33 102.66 69.66 103.32 70 104 C70.42071592 107.05920574 70.48514117 109.9467746 70 113 C67.81840855 115.75569447 66.12822506 117.43588747 63 119 C71.4059333 121.83719113 79.72744928 123.90782359 88.4621582 125.42871094 C93.26906704 126.34145939 96.47119137 127.36637527 100 131 C100.5625 133.5 100.5625 133.5 100 136 C98.3203125 138.15625 98.3203125 138.15625 96 140 C71.03790728 142.95847025 38.97086135 126.29972953 20.04296875 111.484375 C19.03878906 110.66453125 18.03460938 109.8446875 17 109 C16.42330566 108.53013672 15.84661133 108.06027344 15.25244141 107.57617188 C7.8745194 101.5255264 1.11769587 95.35233291 -5 88 C-6.16551334 86.70729255 -7.33217349 85.41561812 -8.5 84.125 C-14.10836821 77.68243514 -19.49670031 70.87468707 -23.015625 63.046875 C-23.88558066 61.23791957 -24.88182685 59.49089426 -25.89453125 57.7578125 C-28.06013793 53.99812017 -29.79568193 50.13739031 -31.4375 46.125 C-31.7368042 45.39539063 -32.0361084 44.66578125 -32.34448242 43.9140625 C-43.33335465 16.46684997 -43.33335465 16.46684997 -42 5 C-40.54142703 2.15962105 -39.56781145 1.2390785 -36.625 0 C-32.85690006 0 -31.63288073 1.3713522 -29 4 C-28.03125 7.14453125 -28.03125 7.14453125 -27.5 10.8125 C-25.68288893 23.83916899 -25.68288893 23.83916899 -20 35 C-19.566875 34.236875 -19.13375 33.47375 -18.6875 32.6875 C-17.20597598 30.32803582 -16.15492184 28.71595628 -14 27 C-11.73828125 26.70703125 -11.73828125 26.70703125 -9.3125 26.8125 C-8.50425781 26.83957031 -7.69601563 26.86664063 -6.86328125 26.89453125 C-6.24839844 26.92933594 -5.63351563 26.96414063 -5 27 C-5.23505249 26.18378174 -5.23505249 26.18378174 -5.47485352 25.35107422 C-6.18363934 22.862519 -6.87317264 20.36901198 -7.5625 17.875 C-7.9327832 16.59109375 -7.9327832 16.59109375 -8.31054688 15.28125 C-9.59990417 10.55965992 -10.53334808 6.81802018 -9 2 C-5.84495309 -0.64341768 -3.87751026 -1.60448701 0 0 Z M-20 38 C-19 41 -19 41 -19 41 Z M0 40 C-0.0825 40.61875 -0.165 41.2375 -0.25 41.875 C-1 44 -1 44 -2.765625 45.11328125 C-6.46273474 46.58049088 -10.08576718 46.49556342 -14 46 C-16.5625 44.5 -16.5625 44.5 -18 43 C-13.91587136 57.48009246 -2.91611148 73.94952778 9 83 C9.66 79.37 10.32 75.74 11 72 C14.3 71.34 17.6 70.68 21 70 C18.83684825 66.67207422 16.60739762 63.45901567 14.1875 60.3125 C9.41803303 54.00175489 4.74213985 47.46023341 2 40 C1.34 40 0.68 40 0 40 Z M29 78 C28.3503125 79.6396875 28.3503125 79.6396875 27.6875 81.3125 C25.50555556 86.29980159 25.50555556 86.29980159 23 88 C20.69011685 88.74386068 18.35684056 89.42190703 16 90 C17.34988317 94.04964951 19.44179062 94.74190559 23 97 C23.7425 97.598125 24.485 98.19625 25.25 98.8125 C33.6390553 105.48561217 42.35739426 110.42879353 52 115 C51.90460938 114.40832031 51.80921875 113.81664062 51.7109375 113.20703125 C50.50132845 104.58505048 50.50132845 104.58505048 53 101 C56.125 99.6875 56.125 99.6875 59 99 C59 98.34 59 97.68 59 97 C58.11699219 96.5153125 57.23398438 96.030625 56.32421875 95.53125 C38.44956709 85.59477441 38.44956709 85.59477441 32.32421875 79.26953125 C31.0651259 77.76931863 31.0651259 77.76931863 29 78 Z " fill="#46FED4" transform="translate(156,250)"/>
<path d="M0 0 C1.125 1.875 1.125 1.875 1 5.4375 C0.125 8.875 0.125 8.875 -2.875 10.875 C-4.81005859 11.43408203 -4.81005859 11.43408203 -7.0234375 11.8828125 C-7.85399658 12.06070313 -8.68455566 12.23859375 -9.5402832 12.421875 C-10.43448975 12.61265625 -11.32869629 12.8034375 -12.25 13 C-20.1149796 14.7765601 -27.65033069 17.00749576 -35.1875 19.875 C-36.03940918 20.19484863 -36.89131836 20.51469727 -37.76904297 20.84423828 C-42.57386807 22.72835301 -46.8568776 24.94317516 -51.17504883 27.76806641 C-53.07604605 29.00591236 -55.03871409 30.04017516 -57.0625 31.0625 C-61.91804982 33.69788568 -66.14856277 37.03883233 -70.44604492 40.48510742 C-72.9284264 42.46114185 -74.83574836 43.86191612 -77.875 44.875 C-78.16375 45.473125 -78.4525 46.07125 -78.75 46.6875 C-79.875 48.875 -79.875 48.875 -82.18359375 50.703125 C-86.81528342 54.44074395 -90.19616806 59.22682504 -93.875 63.875 C-94.70773438 64.88046875 -95.54046875 65.8859375 -96.3984375 66.921875 C-102.97049254 74.96505929 -107.68306993 83.39053897 -111.875 92.875 C-112.18566406 93.5669043 -112.49632812 94.25880859 -112.81640625 94.97167969 C-117.30200004 105.12995433 -120.12530611 115.24100733 -122.10229492 126.17211914 C-123.08443681 131.34754478 -123.85543704 135.14422118 -127.875 138.875 C-130.375 139.4375 -130.375 139.4375 -132.875 138.875 C-135.1875 137.375 -135.1875 137.375 -136.875 134.875 C-137.2377728 128.98789754 -136.43447023 123.87959996 -135 118.1875 C-134.82597656 117.45466797 -134.65195313 116.72183594 -134.47265625 115.96679688 C-133.53413982 112.11192754 -132.34935167 108.56087919 -130.875 104.875 C-130.42447266 103.00134766 -130.42447266 103.00134766 -129.96484375 101.08984375 C-125.89000372 84.23428571 -114.99585784 65.25935475 -102.875 52.875 C-101.885 52.545 -100.895 52.215 -99.875 51.875 C-99.565625 51.070625 -99.25625 50.26625 -98.9375 49.4375 C-97.65557087 46.34578856 -96.78628311 46.23966396 -93.875 44.875 C-93.60945313 44.30007812 -93.34390625 43.72515625 -93.0703125 43.1328125 C-87.55113229 32.70769433 -73.54547665 25.05570644 -63.875 18.875 C-63.28992676 18.49714355 -62.70485352 18.11928711 -62.10205078 17.72998047 C-52.91354793 11.87744777 -43.31655341 8.15790923 -33.05883789 4.64306641 C-30.95683125 3.90378045 -28.88948953 3.10141854 -26.81640625 2.28515625 C-22.8395023 0.78370232 -18.86288173 -0.11583969 -14.6875 -0.875 C-13.65979492 -1.08189453 -13.65979492 -1.08189453 -12.61132812 -1.29296875 C-7.93408352 -2.1662945 -4.16556078 -2.49933647 0 0 Z " fill="#46FED4" transform="translate(250.875,82.125)"/>
<path d="M0 0 C4.24824965 2.98950902 7.14524881 6.00730588 9.671875 10.609375 C10.043125 11.22039062 10.414375 11.83140625 10.796875 12.4609375 C14.96013796 20.1803209 14.88452971 29.03874241 13.046875 37.48046875 C10.01875103 46.14576994 4.09133949 52.56978469 -3.765625 57.171875 C-12.07380329 60.94161876 -21.75949227 61.37995024 -30.4609375 58.61328125 C-39.94471933 54.06955891 -46.59871424 47.0375182 -50.25390625 37.08984375 C-52.23677056 28.74023146 -52.06553703 19.09914301 -47.67578125 11.546875 C-36.09564307 -5.10167149 -18.05980928 -10.78740286 0 0 Z M-30.328125 11.609375 C-31.25625 12.16625 -32.184375 12.723125 -33.140625 13.296875 C-36.8076839 17.17348013 -38.25066381 21.6658497 -38.390625 26.984375 C-37.84939692 33.65952137 -35.88308979 38.42146331 -30.828125 42.921875 C-26.2183261 46.77348329 -22.0294179 46.95244424 -16.1875 46.890625 C-10.61693193 46.34270027 -6.81517026 44.13555303 -2.953125 40.171875 C0.86540597 34.15034539 1.59848997 28.62799051 0.671875 21.609375 C-1.4190205 15.68178776 -5.64922347 11.88711623 -10.93359375 8.6796875 C-18.02773964 5.50873159 -24.06650764 7.67702449 -30.328125 11.609375 Z " fill="#46FED4" transform="translate(299.328125,394.390625)"/>
<path d="M0 0 C6.87657988 6.43471129 10.22439059 13.20617797 11 22.578125 C11 31.74624783 8.29668027 41.13089425 2 48 C1.34 48 0.68 48 0 48 C-0.33 48.99 -0.66 49.98 -1 51 C-2.92578125 52.3515625 -2.92578125 52.3515625 -5.3125 53.625 C-6.48232422 54.26308594 -6.48232422 54.26308594 -7.67578125 54.9140625 C-15.20056597 58.42984427 -25.17037503 58.20426064 -33 55.75 C-40.70847823 52.66376425 -47.32052855 47.37842996 -51.07421875 39.84375 C-54.98908294 29.6078124 -55.05052522 20.27043287 -51 10 C-45.9809555 1.27959525 -38.11966413 -4.86410076 -28.5 -7.75 C-17.93614818 -8.80638518 -8.42151839 -6.74420352 0 0 Z M-38 13 C-41.24914268 18.52354256 -41.86342353 23.7401794 -41 30 C-39.37058269 35.56717582 -36.55174504 38.89144367 -31.78125 42.08984375 C-25.96992089 45.05922902 -19.3166504 44.73360596 -13.25 42.8125 C-7.18580625 39.43054579 -4.13019635 35.61482023 -2 29 C-1.07569092 21.9521433 -3.02370496 16.85874357 -7 11 C-10.83009386 6.83726772 -15.06458787 5.19174448 -20.66796875 4.8671875 C-27.66553116 5.26570864 -33.20911353 7.98097608 -38 13 Z " fill="#46FED5" transform="translate(105,212)"/>
<path d="M0 0 C6.31959573 6.28034358 11.06513859 13.4955926 11.26733398 22.546875 C11.23493291 34.53809095 8.33720075 41.36637248 -0.11328125 49.875 C-0.83515625 50.6175 -1.55703125 51.36 -2.30078125 52.125 C-9.28340941 56.46974641 -17.87831719 59.24513982 -26.11328125 57.875 C-35.4435859 55.57977222 -43.62635277 50.91939514 -49.11328125 42.875 C-53.76985919 34.79824585 -55.48736892 26.82695205 -53.65234375 17.54296875 C-50.56429912 7.17077177 -44.57478581 0.07070921 -35.11328125 -5.125 C-23.78848713 -9.99400937 -9.44745912 -7.66528123 0 0 Z M-34.92578125 10.0625 C-38.84522287 15.10178209 -41.96112905 20.0831827 -41.5546875 26.73046875 C-40.29658725 32.84283193 -37.60131964 38.30517488 -32.42578125 41.9375 C-27.08056913 44.75076954 -21.53948235 45.80496887 -15.65234375 44.20703125 C-10.16675093 41.97452254 -5.62516366 39.05903504 -3.0078125 33.546875 C-1.02349732 27.61992487 -1.16630563 21.13308697 -3.80078125 15.4375 C-7.26568919 9.54234413 -11.70972861 7.41743668 -18.02734375 5.390625 C-24.06533015 3.89808904 -30.18161608 6.37259375 -34.92578125 10.0625 Z " fill="#47FED5" transform="translate(298.11328125,28.125)"/>
<path d="M0 0 C1.875 1.6875 1.875 1.6875 3 4 C3 7.0625 3 7.0625 2 10 C-1.92020698 12.96715454 -6.0857932 13.90448331 -10.8203125 14.82421875 C-11.56078827 14.97534622 -12.30126404 15.12647369 -13.06417847 15.28218079 C-14.62148226 15.59823447 -16.17970766 15.90977711 -17.73876953 16.21704102 C-20.12608544 16.687714 -22.51039404 17.1717096 -24.89453125 17.65820312 C-26.411302 17.9643173 -27.92822425 18.26968196 -29.4453125 18.57421875 C-30.15785187 18.71792404 -30.87039124 18.86162933 -31.60452271 19.00968933 C-34.45935761 19.57031751 -37.0822093 20 -40 20 C-40 20.66 -40 21.32 -40 22 C-38.741875 22.103125 -37.48375 22.20625 -36.1875 22.3125 C-4.52474325 25.51485859 -4.52474325 25.51485859 1.78515625 30.375 C3 32 3 32 2.9375 35.5 C2 39 2 39 0.31640625 40.76171875 C-2.8224322 42.43964757 -4.53243209 41.97966687 -8 41.3125 C-9.03125 41.12300781 -10.0625 40.93351562 -11.125 40.73828125 C-12.40375 40.49464844 -13.6825 40.25101563 -15 40 C-16.78870325 39.70872274 -18.57781126 39.41992647 -20.3671875 39.1328125 C-28.32781413 37.81615209 -36.22041491 36.1756914 -44.125 34.5625 C-59.54486148 31.37985011 -59.54486148 31.37985011 -75.11376953 29.06274414 C-78.1257129 28.64444033 -79.71787879 28.27866666 -81.9140625 26.109375 C-83.40335509 23.21650451 -83.40937618 21.20678004 -83 18 C-80.54709328 14.45395007 -76.85052261 13.91097786 -72.875 13 C-72.16923828 12.83048828 -71.46347656 12.66097656 -70.73632812 12.48632812 C-64.97459776 11.13870364 -59.17392818 10.1118371 -53.33911133 9.14013672 C-48.67815531 8.34720933 -44.13994018 7.32579753 -39.5625 6.125 C-32.20172271 4.20119297 -24.77514238 2.66265556 -17.3125 1.1875 C-16.1769165 0.95627441 -15.04133301 0.72504883 -13.87133789 0.48681641 C-12.7961792 0.27847168 -11.72102051 0.07012695 -10.61328125 -0.14453125 C-9.65204346 -0.33378174 -8.69080566 -0.52303223 -7.70043945 -0.71801758 C-4.84047118 -1.01665815 -2.75382342 -0.80066459 0 0 Z " fill="#46FED4" transform="translate(202,215)"/>
<path d="M0 0 C2.82895107 3.80493919 3.90677775 7.82398189 4.9375 12.375 C5.27502116 13.79060829 5.61359088 15.20596692 5.953125 16.62109375 C6.12392578 17.34151855 6.29472656 18.06194336 6.47070312 18.80419922 C7.3281673 22.36140991 8.25176331 25.90020018 9.1875 29.4375 C9.67283203 31.29181641 9.67283203 31.29181641 10.16796875 33.18359375 C10.72068108 35.87994688 10.72068108 35.87994688 12 37 C12.96033968 33.18800256 13.91790172 29.37531245 14.875 25.5625 C15.14441406 24.49322266 15.41382813 23.42394531 15.69140625 22.32226562 C17.05824425 16.8715824 18.38179343 11.43016933 19.47705078 5.91772461 C20.07006122 3.74307615 20.85775958 1.94285423 22 0 C24.79870027 -1.39935013 26.90498792 -1.25265405 30 -1 C31.875 0 31.875 0 33 2 C33.63581107 9.72323442 31.64746685 16.90395451 29.875 24.375 C29.55555292 25.74803253 29.2368781 27.12124494 28.91894531 28.49462891 C28.26944843 31.29558423 27.61531469 34.09539901 26.95800781 36.89453125 C26.0529317 40.75843138 25.17552632 44.62822787 24.3046875 48.5 C23.78649509 50.79167498 23.26826777 53.08334206 22.75 55.375 C22.51651855 56.41833496 22.28303711 57.46166992 22.04248047 58.53662109 C20.68113048 64.48899985 19.06197874 70.25128963 17 76 C13.75 76.75 13.75 76.75 10 77 C5.87138173 74.00578712 4.86437724 70.24215436 3.6875 65.5 C3.48511719 64.73099365 3.28273438 63.9619873 3.07421875 63.16967773 C2.36538172 60.4506232 1.68118864 57.72611061 1 55 C0.72752441 53.9186377 0.45504883 52.83727539 0.17431641 51.72314453 C-1.02483593 46.96072006 -2.22017649 42.19750504 -3.39575195 37.42919922 C-4.73548185 31.99862054 -6.09416792 26.58029388 -7.59375 21.19140625 C-7.95243164 19.8928772 -7.95243164 19.8928772 -8.31835938 18.56811523 C-8.75708431 16.9956509 -9.20554691 15.42585418 -9.66601562 13.85961914 C-10.86136529 9.55745973 -11.20898908 6.32520691 -10 2 C-6.90856676 -1.54942335 -4.33356644 -1.47525666 0 0 Z " fill="#46FED5" transform="translate(268,303)"/>
<path d="M0 0 C3.09405463 4.0041782 3.32086768 6.91190104 3.109375 11.890625 C3.08584961 12.54856552 3.06232422 13.20650604 3.03808594 13.88438416 C2.95809579 16.00726332 2.85517163 18.12823117 2.75 20.25 C2.68686944 21.70479281 2.62469678 23.1596275 2.56347656 24.61450195 C2.44131788 27.46237135 2.30964555 30.30958487 2.171875 33.15673828 C2.02931713 36.34444568 1.93178562 39.52479337 1.875 42.71484375 C1.83367193 44.20573859 1.79204501 45.69662521 1.75 47.1875 C1.71132813 49.03408203 1.71132813 49.03408203 1.671875 50.91796875 C0.79162407 54.95586399 -0.81301142 56.43943528 -4 59 C-6.23828125 60.14453125 -6.23828125 60.14453125 -8.3125 60.8125 C-10.1378125 61.4003125 -10.1378125 61.4003125 -12 62 C-11.65775391 63.19496094 -11.65775391 63.19496094 -11.30859375 64.4140625 C-11.02113281 65.47367187 -10.73367188 66.53328125 -10.4375 67.625 C-10.14746094 68.66914063 -9.85742188 69.71328125 -9.55859375 70.7890625 C-8.95897885 74.23579988 -9.11589707 76.62784785 -10 80 C-12 82 -12 82 -13.9453125 82.1953125 C-16.97265625 82.09765625 -16.97265625 82.09765625 -20 82 C-22.21011951 77.87444359 -24.05729303 74.29363164 -24.9375 69.6875 C-26.21867499 65.24106914 -27.22260669 65.22769349 -31 63 C-32 59.5 -32 59.5 -32 56 C-30.07104804 53.5290654 -28.16284691 52.46277185 -25.2421875 51.4296875 C-24.53449219 51.17316406 -23.82679688 50.91664063 -23.09765625 50.65234375 C-22.36417969 50.39582031 -21.63070313 50.13929688 -20.875 49.875 C-16.07795091 48.51256581 -16.07795091 48.51256581 -12 46 C-11.9519164 43.38845951 -11.95764101 40.79787259 -12 38.1875 C-12.06611928 31.07141244 -11.76411559 24.08171415 -11 17 C-11.99 17.66 -12.98 18.32 -14 19 C-17.5 19.375 -17.5 19.375 -21 19 C-23.39193101 16.91670525 -23.92323184 15.68010107 -24.27734375 12.54296875 C-24 10 -24 10 -22.6015625 8.375 C-6.47570093 -2.84299065 -6.47570093 -2.84299065 0 0 Z " fill="#45FED4" transform="translate(326,290)"/>
<path d="M0 0 C4.99901725 2.65905173 9.60951042 6.43439756 13 11 C13.875 14.4375 13.875 14.4375 13 18 C10.90832746 20.9262808 8.56351759 23.48225951 6 26 C6.59329102 26.27166992 7.18658203 26.54333984 7.79785156 26.82324219 C11.32812692 28.70970862 13.91243322 31.46232451 16.75 34.25 C17.35199219 34.81074219 17.95398438 35.37148437 18.57421875 35.94921875 C22.89034615 40.18704906 22.89034615 40.18704906 23.453125 44.359375 C23 47 23 47 22 48 C18.34236293 48.00917851 16.10247468 47.85633118 13.17822266 45.58496094 C11.32296251 43.7332559 9.55546851 41.83275089 7.8125 39.875 C6.62268385 38.54902307 5.42132422 37.23328632 4.20703125 35.9296875 C3.6860083 35.34429199 3.16498535 34.75889648 2.62817383 34.15576172 C1.05440604 32.76253511 1.05440604 32.76253511 -1.01293945 33.25439453 C-1.66866943 33.50044434 -2.32439941 33.74649414 -3 34 C-4.485 34.495 -4.485 34.495 -6 35 C-6 35.66 -6 36.32 -6 37 C-9.30676524 38.65338262 -12.45452193 38.76373696 -16 38 C-20.52505581 35.14672325 -25.09750109 31.07333042 -27 26 C-27 21.83617637 -26.72681219 19.77844366 -23.85546875 16.703125 C-22.91316406 15.81109375 -21.97085937 14.9190625 -21 14 C-19.90905802 12.90471696 -18.82198884 11.80556647 -17.73828125 10.703125 C-16.59638556 9.55205219 -15.45445805 8.40101094 -14.3125 7.25 C-13.73177734 6.66089844 -13.15105469 6.07179688 -12.55273438 5.46484375 C-8.1934035 1.08031443 -6.2723322 -0.60310887 0 0 Z " fill="#47FED5" transform="translate(447,80)"/>
<path d="M0 0 C3.796166 2.72849432 5.61394299 6.72715007 7.78125 10.7578125 C15.32827911 24.64241092 28.72570373 33.77137749 43.0625 39.75 C46 41 46 41 48 43 C48.35314229 46.24890907 48.27783078 48.37896648 46.9375 51.375 C45 53 45 53 41.8984375 53.3515625 C37.06348122 52.9155444 33.87442495 51.33952949 29.6875 49 C28.93984375 48.59136719 28.1921875 48.18273437 27.421875 47.76171875 C21.42928861 44.40711666 16.06287497 40.65820468 11 36 C9.83404297 34.93652344 9.83404297 34.93652344 8.64453125 33.8515625 C3.28949063 28.73870965 -1.07276728 23.27139488 -5 17 C-5.44730469 16.28585937 -5.89460937 15.57171875 -6.35546875 14.8359375 C-8.38049636 11.25585457 -9.00550737 9.34145723 -8.9375 5.125 C-7.48136893 0.27122976 -4.76722427 -0.69764258 0 0 Z " fill="#46FED4" transform="translate(207,259)"/>
<path d="M0 0 C1.29349365 0.00523682 2.5869873 0.01047363 3.91967773 0.01586914 C4.9496714 0.01799156 4.9496714 0.01799156 6.00047302 0.02015686 C8.20144949 0.0257706 10.40232557 0.03832532 12.60327148 0.05102539 C14.09220231 0.05603863 15.58113473 0.06060184 17.07006836 0.06469727 C20.72703954 0.07489518 24.38379265 0.0944676 28.04077148 0.11352539 C28.04077148 6.05352539 28.04077148 11.99352539 28.04077148 18.11352539 C17.48077148 18.11352539 6.92077148 18.11352539 -3.95922852 18.11352539 C-3.97985352 15.32915039 -4.00047852 12.54477539 -4.02172852 9.67602539 C-4.03083252 8.79760986 -4.03993652 7.91919434 -4.04931641 7.01416016 C-4.05645942 5.04706565 -4.00954745 3.07998918 -3.95922852 1.11352539 C-2.95922852 0.11352539 -2.95922852 0.11352539 0 0 Z " fill="#47FED4" transform="translate(413.959228515625,124.886474609375)"/>
<path d="M0 0 C3.63 0 7.26 0 11 0 C11 0.66 11 1.32 11 2 C11.99 2.33 12.98 2.66 14 3 C5.09 3 -3.82 3 -13 3 C-13 2.67 -13 2.34 -13 2 C-6.565 1.505 -6.565 1.505 0 1 C0 0.67 0 0.34 0 0 Z " fill="#5FFCDD" transform="translate(241,228)"/>
</svg>
